#!OML:ASF E:\Steps\Project 1\Capture day 1\Session 2\Subject.ASF
:FULLY-SPECIFIED
:DEGREES
237
root 8.95027 16.2791 31.6673 -154.297 -3.1678 176.229
lowerback -20.7839 -2.3965 -7.62541
upperback -0.232905 -1.50017 -1.07717
thorax 11.6158 -1.22033 2.66535
lowerneck 0.641303 -0.667179 -3.90708
upperneck -16.1673 -1.08187 8.24828
head -4.85749 -1.26469 3.30737
rclavicle 1.98785e-015 3.57812e-015
rhumerus -34.2153 -19.1699 -77.9089
rradius 24.7644
rwrist 3.34268
rhand -7.17907 -50.1691
rfingers 7.12502
rthumb 18.6986 -79.2904
lclavicle 1.98785e-015 3.57812e-015
lhumerus -29.3588 -4.0858 82.6218
lradius 23.826
lwrist -5.14233
lhand -20.7813 -14.2333
lfingers 7.12502
lthumb 5.58554 15.6731
rfemur -27.1287 8.75297 14.9659
rtibia 15.046
rfoot -24.2973 -11.9654
rtoes -31.4916
lfemur -29.0361 -12.171 -21.999
ltibia 17.3844
lfoot -14.5386 1.60722
ltoes -41.3201
238
root 8.95237 16.2837 31.6641 -153.969 -3.00676 176.209
lowerback -21.3034 -2.43296 -7.71347
upperback 0.218586 -1.42566 -1.02126
thorax 12.4283 -1.21284 2.7802
lowerneck 0.383678 -0.662022 -3.84794
upperneck -16.7144 -1.13581 8.18206
head -4.98027 -1.33172 3.29103
rclavicle 9.93923e-015 2.78299e-015
rhumerus -33.78 -19.6545 -77.5411
rradius 24.239
rwrist 4.02555
rhand -7.00865 -50.7234
rfingers 7.12502
rthumb 18.8625 -79.8289
lclavicle 9.93923e-015 2.78299e-015
lhumerus -29.0101 -4.51399 82.4796
lradius 23.7712
lwrist -4.57829
lhand -21.1823 -14.7603
lfingers 7.12502
lthumb 5.19837 15.1559
rfemur -27.5868 8.9863 14.8065
rtibia 15.1869
rfoot -24.4406 -12.0997
rtoes -31.827
lfemur -29.4334 -12.2509 -21.9258
ltibia 17.4758
lfoot -14.6539 1.86361
ltoes -41.7419
239
root 8.95673 16.2854 31.6647 -153.691 -2.77965 176.237
lowerback -21.2244 -2.3704 -7.68174
upperback 0.320424 -1.33962 -1.06771
thorax 12.4902 -1.17036 2.73741
lowerneck 0.366658 -0.676519 -3.69184
upperneck -16.833 -1.16103 8.1846
head -5.01357 -1.36443 3.26975
rclavicle -7.85199e-015 2.38542e-015
rhumerus -34.0582 -20.0119 -77.139
rradius 23.892
rwrist 4.55756
rhand -6.90671 -50.3203
rfingers 7.12502
rthumb 18.9605 -79.4161
lclavicle -7.85199e-015 2.38542e-015
lhumerus -29.299 -4.98161 82.1268
lradius 23.9189
lwrist -4.70276
lhand -21.6857 -14.57
lfingers 7.12502
lthumb 4.71224 15.3576
rfemur -28.0594 9.33338 14.6688
rtibia 15.3933
rfoot -24.5716 -12.1683
rtoes -31.5081
lfemur -29.7881 -12.1986 -21.8242
ltibia 17.5627
lfoot -14.7423 2.09473
ltoes -42.138
240
root 8.96286 16.2858 31.6679 -153.334 -2.71101 176.289
lowerback -20.6049 -2.33806 -7.68895
upperback -0.0011448 -1.39415 -1.00202
thorax 11.7745 -1.17642 2.81903
lowerneck 0.487795 -0.635811 -3.76507
upperneck -16.4345 -1.07011 8.17074
head -4.91649 -1.28455 3.26443
rclavicle 7.7526e-015 -1.31198e-014
rhumerus -35.1093 -19.9152 -76.4016
rradius 23.7242
rwrist 4.59176
rhand -6.85668 -50.7396
rfingers 7.12502
rthumb 19.0087 -79.8308
lclavicle 7.7526e-015 -1.31198e-014
lhumerus -30.3138 -5.39504 82.0241
lradius 24.1516
lwrist -4.53259
lhand -22.2365 -14.1531
lfingers 7.12502
lthumb 4.1804 15.7856
rfemur -28.5927 9.58687 14.5817
rtibia 15.5537
rfoot -24.6233 -12.2081
rtoes -31.0689
lfemur -30.3158 -12.1729 -21.636
ltibia 17.7526
lfoot -14.8911 2.26277
ltoes -42.5704
241
root 8.97034 16.2857 31.6686 -152.917 -2.67611 176.38
lowerback -20.2193 -2.35669 -7.83667
upperback -0.224458 -1.46232 -0.759461
thorax 11.3195 -1.2072 3.16691
lowerneck 0.340414 -0.517312 -4.02178
upperneck -16.0585 -0.909464 8.02457
head -4.78607 -1.15415 3.24426
rclavicle 1.37161e-014 -4.77083e-015
rhumerus -36.0072 -19.4375 -75.5745
rradius 23.6505
rwrist 4.27397
rhand -6.74093 -52.1167
rfingers 7.12502
rthumb 19.12 -81.1968
lclavicle 1.37161e-014 -4.77083e-015
lhumerus -31.2245 -5.69365 82.2323
lradius 24.3568
lwrist -3.9643
lhand -21.5503 -14.3955
lfingers 7.12502
lthumb 4.84304 15.5292
rfemur -29.1802 9.68277 14.5831
rtibia 15.6991
rfoot -24.7112 -12.1934
rtoes -31.2142
lfemur -30.9824 -12.1322 -21.3715
ltibia 18.07
lfoot -15.1451 2.36225
ltoes -43.1153
